<?xml version="1.0" encoding="utf-8"?>
<svg xml:space="preserve" viewBox="0 0 100 100" y="0" x="0" xmlns="http://www.w3.org/2000/svg" id="Layer_1" version="1.1" style="height: 100%; width: 100%; background: none; shape-rendering: auto;" width="212px" height="212px"><g class="ldl-scale" style="transform-origin: 50% 50%; transform: rotate(0deg) scale(1, 1);"><g class="ldl-ani"><g class="ldl-layer"><g class="ldl-ani"><g><g class="ldl-layer"><g class="ldl-ani" style="transform-origin: 50px 50px; transform: matrix(0.3, 0, 0, 0.3, 0, 0); opacity: 0; animation: 1.04167s linear 0.210069s 1 normal forwards running vortex-in-42877ea4-142a-468c-8768-f93910374aa8;"><path fill="#f47e5f" d="M48.2 22.7c10.4-6 22.4-6.9 33-3.5-10.4-6.3-23.9-6.9-35.3-.4S28.4 37.3 28.7 49.5c2.3-10.9 9.1-20.8 19.5-26.8z" style="fill: rgb(26, 175, 208);"></path></g></g><g class="ldl-layer"><g class="ldl-ani" style="transform-origin: 50px 50px; transform: matrix(0.3, 0, 0, 0.3, 0, 0); opacity: 0; animation: 1.04167s linear 0.190972s 1 normal forwards running vortex-in-42877ea4-142a-468c-8768-f93910374aa8;"><path fill="#f47e5f" d="M22.7 51.8c-6-10.4-6.9-22.4-3.5-33-6.3 10.4-6.9 23.9-.4 35.3s18.5 17.6 30.8 17.3c-11-2.4-20.9-9.2-26.9-19.6z" style="fill: rgb(26, 175, 208);"></path></g></g><g class="ldl-layer"><g class="ldl-ani" style="transform-origin: 50px 50px; transform: matrix(0.3, 0, 0, 0.3, 0, 0); opacity: 0; animation: 1.04167s linear 0.171875s 1 normal forwards running vortex-in-42877ea4-142a-468c-8768-f93910374aa8;"><path fill="#f47e5f" d="M51.8 77.3c-10.4 6-22.4 6.9-33 3.5 10.4 6.3 23.9 6.9 35.3.4s17.6-18.5 17.3-30.8c-2.4 11-9.2 20.9-19.6 26.9z" style="fill: rgb(26, 175, 208);"></path></g></g><g class="ldl-layer"><g class="ldl-ani" style="transform-origin: 50px 50px; transform: matrix(0.3, 0, 0, 0.3, 0, 0); opacity: 0; animation: 1.04167s linear 0.152778s 1 normal forwards running vortex-in-42877ea4-142a-468c-8768-f93910374aa8;"><path fill="#f47e5f" d="M77.3 48.2c6 10.4 6.9 22.4 3.5 33 6.3-10.4 6.9-23.9.4-35.3S62.7 28.4 50.5 28.7c10.9 2.3 20.8 9.1 26.8 19.5z" style="fill: rgb(26, 175, 208);"></path></g></g></g></g></g><g class="ldl-layer"><g class="ldl-ani"><g><g class="ldl-layer"><g class="ldl-ani" style="transform-origin: 50px 50px; transform: matrix(0.3, 0, 0, 0.3, 0, 0); opacity: 0; animation: 1.04167s linear 0.133681s 1 normal forwards running vortex-in-42877ea4-142a-468c-8768-f93910374aa8;"><path fill="#f7b26a" d="M34.8 27.2c6-10.4 15.9-17.2 26.9-19.5-12.2-.3-24.2 6-30.8 17.3s-5.9 24.8.4 35.2c-3.4-10.6-2.5-22.6 3.5-33z" style="fill: rgb(106, 103, 206);"></path></g></g><g class="ldl-layer"><g class="ldl-ani" style="transform-origin: 50px 50px; transform: matrix(0.3, 0, 0, 0.3, 0, 0); opacity: 0; animation: 1.04167s linear 0.114583s 1 normal forwards running vortex-in-42877ea4-142a-468c-8768-f93910374aa8;"><path fill="#f7b26a" d="M27.2 65.2c-10.4-6-17.2-16-19.5-26.9-.3 12.2 6 24.2 17.3 30.8s24.8 5.9 35.3-.4c-10.7 3.4-22.7 2.5-33.1-3.5z" style="fill: rgb(106, 103, 206);"></path></g></g><g class="ldl-layer"><g class="ldl-ani" style="transform-origin: 50px 50px; transform: matrix(0.3, 0, 0, 0.3, 0, 0); opacity: 0; animation: 1.04167s linear 0.0954861s 1 normal forwards running vortex-in-42877ea4-142a-468c-8768-f93910374aa8;"><path fill="#f7b26a" d="M65.2 72.8c-6 10.4-15.9 17.2-26.9 19.5 12.2.3 24.2-6 30.8-17.3s5.9-24.8-.4-35.3c3.4 10.7 2.5 22.7-3.5 33.1z" style="fill: rgb(106, 103, 206);"></path></g></g><g class="ldl-layer"><g class="ldl-ani" style="transform-origin: 50px 50px; transform: matrix(0.3, 0, 0, 0.3, 0, 0); opacity: 0; animation: 1.04167s linear 0.0763889s 1 normal forwards running vortex-in-42877ea4-142a-468c-8768-f93910374aa8;"><path fill="#f7b26a" d="M72.8 34.8c10.4 6 17.2 15.9 19.5 26.9.3-12.2-6-24.2-17.3-30.8s-24.8-5.9-35.2.4c10.6-3.4 22.6-2.5 33 3.5z" style="fill: rgb(106, 103, 206);"></path></g></g></g></g></g><g class="ldl-layer"><g class="ldl-ani"><g><g class="ldl-layer"><g class="ldl-ani" style="transform-origin: 50px 50px; transform: matrix(0.3, 0, 0, 0.3, 0, 0); opacity: 0; animation: 1.04167s linear 0.0572917s 1 normal forwards running vortex-in-42877ea4-142a-468c-8768-f93910374aa8;"><path fill="#e15c64" d="M25.4 37.8c0-12 5.2-22.9 13.5-30.3-10.7 5.9-18 17.3-18 30.3s7.3 24.5 18 30.3c-8.2-7.4-13.5-18.2-13.5-30.3z" style="fill: rgb(59, 232, 176);"></path></g></g><g class="ldl-layer"><g class="ldl-ani" style="transform-origin: 50px 50px; transform: matrix(0.3, 0, 0, 0.3, 0, 0); opacity: 0; animation: 1.04167s linear 0.0381944s 1 normal forwards running vortex-in-42877ea4-142a-468c-8768-f93910374aa8;"><path fill="#e15c64" d="M37.8 74.6c-12 0-22.9-5.2-30.3-13.5 5.9 10.7 17.3 18 30.3 18s24.5-7.3 30.3-18c-7.4 8.2-18.2 13.5-30.3 13.5z" style="fill: rgb(59, 232, 176);"></path></g></g><g class="ldl-layer"><g class="ldl-ani" style="transform-origin: 50px 50px; transform: matrix(0.3, 0, 0, 0.3, 0, 0); opacity: 0; animation: 1.04167s linear 0.0190972s 1 normal forwards running vortex-in-42877ea4-142a-468c-8768-f93910374aa8;"><path fill="#e15c64" d="M74.6 62.2c0 12-5.2 22.9-13.5 30.3 10.7-5.9 18-17.3 18-30.3s-7.3-24.5-18-30.3c8.2 7.4 13.5 18.2 13.5 30.3z" style="fill: rgb(59, 232, 176);"></path></g></g><g class="ldl-layer"><g class="ldl-ani" style="transform-origin: 50px 50px; transform: matrix(0.3, 0, 0, 0.3, 0, 0); opacity: 0; animation: 1.04167s linear 0s 1 normal forwards running vortex-in-42877ea4-142a-468c-8768-f93910374aa8;"><path fill="#e15c64" d="M62.2 25.4c12 0 22.9 5.2 30.3 13.5-5.9-10.7-17.3-18-30.3-18s-24.5 7.3-30.3 18c7.4-8.2 18.2-13.5 30.3-13.5z" style="fill: rgb(59, 232, 176);"></path></g></g></g></g></g><metadata xmlns:d="https://loading.io/stock/">
<d:name>vortex</d:name>
<d:tags>wheel,whirl,typhoon,cyclone,tornado,galaxy,rotate,vortex,spinner</d:tags>
<d:license>by</d:license>
<d:slug>i74pea</d:slug>
</metadata></g></g><style id="vortex-in-42877ea4-142a-468c-8768-f93910374aa8" data-anikit="">@keyframes vortex-in-42877ea4-142a-468c-8768-f93910374aa8 {
  0%, 60% { animation-timing-function: cubic-bezier(0.3, 0, 1, 0.7); }
  0% { opacity: 0; transform: rotate(-1800deg) scale(0.30000000000000004); }
  60% { opacity: 1; transform: rotate(0deg) scale(1); }
  100% { opacity: 1; transform: rotate(0deg) scale(1); }
}</style><!-- [ldio] generated by https://loading.io/ --></svg>